<svg xmlns="http://www.w3.org/2000/svg" xmlns:xlink="http://www.w3.org/1999/xlink" width="30" height="42" viewBox="0 0 10 14"><defs><path id="64jma" d="M370.85 68.699l.572-2.4c.65.169 2.739.484 2.4 1.9-.323 1.359-2.323.669-2.972.5zm2.628 3.395c-.357 1.498-2.766.689-3.547.485l.633-2.656c.78.204 3.285.609 2.914 2.171zm2.616-3.866c.208-1.463-.853-2.25-2.304-2.774l.47-1.982-1.149-.301-.458 1.93a45.59 45.59 0 0 0-.92-.228l.461-1.942-1.148-.301-.471 1.981a36.88 36.88 0 0 1-.734-.18l.001-.007-1.585-.415-.305 1.288s.852.206.834.218c.466.122.55.446.536.702l-.536 2.258a.918.918 0 0 1 .12.04l-.122-.031-.752 3.163c-.057.148-.201.371-.526.287.011.017-.836-.22-.836-.22l-.57 1.382 1.496.392c.278.073.55.15.819.222l-.476 2.005 1.148.3.471-1.983c.313.09.618.172.916.25l-.47 1.974 1.15.3.475-2c1.96.389 3.433.232 4.053-1.629.5-1.498-.025-2.362-1.056-2.926.75-.183 1.316-.701 1.467-1.773z"/></defs><g><g transform="rotate(-14 -68.047 1532.988)"><use fill="#fff" xlink:href="#64jma"/></g></g></svg>