<svg xmlns="http://www.w3.org/2000/svg" xmlns:xlink="http://www.w3.org/1999/xlink" width="36" height="45" viewBox="0 0 12 15"><defs><path id="mhzda" d="M533.91 66.282l.591-2.49c.671.175 2.83.503 2.482 1.972-.335 1.409-2.402.693-3.073.518zm2.706 3.5c-.368 1.549-2.85.712-3.656.502l.652-2.746c.805.211 3.386.63 3.004 2.244zm2.714-3.995c.215-1.513-.882-2.326-2.382-2.868l.487-2.05-1.188-.31-.474 1.995a47.094 47.094 0 0 0-.951-.235l.477-2.008-1.187-.311-.487 2.048a38.19 38.19 0 0 1-.758-.187l.001-.006-1.638-.43-.316 1.332s.881.212.863.225c.48.126.568.46.553.726l-.554 2.334a.95.95 0 0 1 .123.041l-.125-.032-.777 3.27c-.059.153-.208.383-.544.295.012.019-.863-.226-.863-.226l-.59 1.428 1.546.405c.288.075.57.154.846.23l-.491 2.072 1.186.31.487-2.05c.324.093.639.178.947.258l-.486 2.04 1.188.312.492-2.069c2.025.403 3.548.24 4.189-1.683.516-1.548-.026-2.442-1.091-3.025.776-.188 1.36-.724 1.516-1.831z"/></defs><g><g opacity=".2" transform="rotate(-34 171.874 901.005)"><use fill="#41464a" xlink:href="#mhzda"/></g></g></svg>