<svg xmlns="http://www.w3.org/2000/svg" xmlns:xlink="http://www.w3.org/1999/xlink" width="20" height="20" viewBox="0 0 20 20"><defs><path id="35nda" d="M604.699 226.42c-1.336 5.356-6.762 8.616-12.12 7.28-5.355-1.335-8.616-6.761-7.28-12.118 1.335-5.358 6.761-8.618 12.118-7.283 5.357 1.336 8.617 6.763 7.281 12.12z"/><path id="35ndb" d="M594.405 223.327l.545-2.191c.618.154 2.607.442 2.286 1.735-.309 1.24-2.213.61-2.831.456zm2.492 3.085c-.339 1.366-2.628.628-3.37.442l.601-2.422c.742.186 3.122.555 2.769 1.98zm2.514-3.521c.2-1.33-.814-2.046-2.2-2.523l.45-1.803-1.097-.273-.438 1.755c-.288-.072-.584-.14-.879-.207l.441-1.767-1.097-.273-.45 1.802a36.685 36.685 0 0 1-.7-.165l.001-.005-1.513-.378-.292 1.172s.814.186.797.198c.445.11.525.405.512.638l-.512 2.053c.03.008.07.02.114.037l-.116-.029-.718 2.877c-.054.135-.192.337-.503.26.011.016-.797-.199-.797-.199l-.545 1.257 1.428.355c.266.067.526.137.782.202l-.454 1.824 1.096.273.45-1.804c.3.082.59.157.874.227l-.448 1.796 1.097.273.454-1.82c1.871.354 3.278.212 3.87-1.48.477-1.363-.023-2.149-1.008-2.661.717-.166 1.257-.638 1.401-1.612z"/></defs><g><g transform="translate(-585 -214)"><g><use fill="#f7931a" xlink:href="#35nda"/></g><g><use fill="#fff" xlink:href="#35ndb"/></g></g></g></svg>