<svg xmlns="http://www.w3.org/2000/svg" xmlns:xlink="http://www.w3.org/1999/xlink" width="20" height="20" viewBox="0 0 20 20"><defs><path id="4vvba" d="M592.294 318.008h-7.279v7.348a10.361 10.361 0 0 1 7.28-7.348z"/><path id="4vvbb" d="M604.986 325.356v-7.348h-7.278c3.55.965 6.34 3.78 7.278 7.348z"/><path id="4vvbc" d="M597.708 337.994h7.278v-7.348a10.361 10.361 0 0 1-7.278 7.348z"/><path id="4vvbd" d="M585.015 330.646v7.348h7.28a10.361 10.361 0 0 1-7.28-7.348z"/><path id="4vvbe" d="M586.515 328.004c0-4.697 3.797-8.504 8.481-8.504 4.684 0 8.48 3.807 8.48 8.504 0 4.696-3.796 8.504-8.48 8.504-4.684 0-8.48-3.808-8.48-8.504z"/><path id="4vvbf" d="M597.2 328.752l.002.004.003.015.001.001v.001l.001.001a.806.806 0 0 1-.072.525l-.009.014-.003.007-.003.006-.002.002-.002.004-.002.003-.002.004-.001.003-.004.004-.001.003-.003.004-.002.003-.003.004-.001.003-.004.004v.003l-.004.004-.002.003-.003.005-.001.002-.003.005-.002.002-.003.005-.001.002-.004.005v.002l-.005.005-.001.003-.004.005-.002.002-.003.006-.002.003-.003.005-.002.003-.003.006-.002.003-.004.005-.002.003-.004.006-.002.003-.005.007-.002.003-.004.006-.002.003-.005.006-.002.003-.004.006-.004.004-.006.008c-.202.258-.527.47-.922.572l-1.185.309-.512-1.999c.183-.047.937-.237 1.186-.302.395-.101.783-.073 1.083.056l.01.004.004.002.007.003h.004l.006.004h.004l.006.004.003.001.007.003.002.002.007.003.002.001.007.003.002.002.007.003.002.001.006.003.002.002.005.002.003.002.005.003h.003l.005.004.003.001.005.003.002.001.006.003.002.002.005.002.003.002.005.003.003.001.005.003.003.001.004.003.003.002.004.003.003.001.004.004.003.001.004.003.003.002.004.003.003.001.004.003.003.001.004.003.006.005.015.009c.15.102.263.252.317.426l.002.003.004.014.003.005.006.02c.003.002.004.01.003.02zm-3.528-3.114c.154-.04.79-.2 1-.255.334-.085.663-.052.92.072l.008.004.004.001.005.003.003.002.005.002.003.002.005.003.003.001.005.003.002.001.006.003.002.001.006.003.002.002.005.002.003.002.005.003.003.001.005.003.002.001.005.003.003.002.004.003.003.001.004.004.003.001.004.003.002.001.005.003.002.001.004.003h.003l.004.003.002.002.005.002.002.002.004.003h.001l.004.003.002.001.004.003.002.001.004.003h.001l.004.003.001.002.004.002.006.004.012.008a.78.78 0 0 1 .276.396l.001.003.005.013.002.005.006.018a.112.112 0 0 1 .003.021l.003.005c0 .005.002.01.003.014l.002.002a.785.785 0 0 1-.052.48l-.006.014-.003.006-.002.004-.001.003-.002.003v.003l-.003.004v.002l-.003.004v.003l-.003.004-.001.002-.003.004v.002l-.003.004v.003l-.003.004-.001.002-.003.005-.001.002-.003.004-.001.003-.003.004-.001.003-.004.004v.003l-.004.004-.002.003-.003.004-.001.003-.003.004-.002.003-.003.005-.001.002-.004.005-.001.002-.003.005-.002.002-.003.005-.001.002-.004.005-.002.003-.003.005-.002.002-.004.005-.001.003-.004.005-.003.003-.005.008a1.357 1.357 0 0 1-.772.507c-.21.054-.846.221-1 .26zm5.303 2.717l-.005-.01-.009-.028v-.001l-.001-.001v-.002h-.001l-.001-.002c-.1-.334-.297-.63-.566-.85l-.025-.02-.011-.008-.008-.006-.004-.003-.007-.005-.004-.003-.007-.005-.004-.003-.008-.006-.004-.003-.008-.006-.004-.002-.009-.006-.004-.003-.005-.007-.004-.003-.009-.006-.004-.003-.01-.006-.004-.003-.008-.006-.005-.003-.009-.007-.004-.003-.01-.006-.005-.003-.01-.006-.004-.003-.01-.006-.005-.004-.01-.006-.005-.002-.01-.007-.005-.002-.01-.006-.006-.003-.01-.006-.006-.003-.01-.006-.006-.003-.011-.006-.006-.004-.01-.006-.006-.004-.012-.006-.006-.003-.011-.006-.008-.005-.018-.01a2.414 2.414 0 0 0-.774-.245 2.17 2.17 0 0 0 .207-.262l.01-.014.005-.008.006-.01.004-.004.006-.01.003-.005.006-.01.003-.004.006-.01.003-.005.006-.01.003-.004.006-.01.003-.004.005-.01.003-.004.005-.01.003-.003.005-.01.002-.004.005-.01.002-.003.005-.01.003-.004.004-.009.003-.004.005-.008.002-.004.005-.009.003-.004.004-.008.003-.004.004-.008.002-.004.004-.008.002-.003.004-.008.002-.004.004-.008.002-.004.003-.007.002-.004.003-.008.002-.004.004-.007.001-.004.004-.009.006-.01.01-.026h.001c.116-.288.143-.604.078-.907l-.001-.002v-.001l-.001-.001-.001-.001v-.001a.29.29 0 0 0-.006-.025v-.003h-.001l-.004-.007-.009-.036c-.002-.012-.006-.024-.01-.036l-.004-.008v-.001l-.008-.024v-.001l-.001-.002v-.001h-.001v-.002a1.543 1.543 0 0 0-.504-.756l-.022-.017-.01-.007-.007-.006-.004-.003-.006-.005-.003-.003-.007-.005-.003-.003-.008-.004-.003-.003-.008-.006-.003-.002-.008-.006-.003-.003-.008-.005-.004-.003-.007-.005-.005-.002-.007-.006-.004-.002-.009-.005-.004-.003-.008-.005-.004-.002-.009-.005-.004-.003-.008-.005-.004-.002-.009-.006-.004-.003-.009-.005-.004-.003-.01-.005-.004-.003-.01-.005-.004-.003-.01-.006-.004-.003-.01-.005-.004-.003-.01-.006-.005-.003-.01-.006-.005-.003-.01-.006-.006-.002-.01-.006-.008-.004-.016-.009c-.463-.241-1.052-.314-1.644-.161l-.154.04-.39-1.52-.902.232.387 1.515-.722.185-.389-1.51-.902.232.388 1.515-1.862.48.248.965.75-.193a.463.463 0 0 1 .565.335l1.042 4.062a.311.311 0 0 1-.223.378l-.657.17.039 1.147 1.859-.479.393 1.512.902-.233-.388-1.515.722-.186.388 1.516.902-.233-.39-1.521.376-.098c.667-.172 1.207-.564 1.533-1.053l.011-.017.006-.008.007-.011.004-.006.007-.011.003-.006.007-.01.003-.006.007-.011.002-.006.007-.01.002-.006.007-.011.003-.005.005-.01.003-.006.006-.01.002-.006.006-.01.003-.005.006-.01.003-.005.005-.01.003-.005.005-.01.003-.005.006-.01.002-.004.005-.01.002-.005.005-.009.002-.004.005-.009.002-.004.005-.01.002-.003.005-.01.002-.004.005-.009.002-.004.005-.009.003-.004.003-.009.003-.004.004-.009.001-.003.005-.01.005-.013c.004-.01.009-.018.012-.028v-.001c.131-.323.162-.678.089-1.019l-.001-.001v-.002h-.001v-.001h-.001v-.002l-.007-.027v-.004h-.001v-.001l-.001-.002-.001-.001v-.002h-.001v-.001h-.001l-.002-.004-.01-.04-.003-.037z"/></defs><g><g transform="translate(-585 -318)"><g><g><use fill="#f7941d" xlink:href="#4vvba"/></g><g><use fill="#f7941d" xlink:href="#4vvbb"/></g><g><use fill="#f7941d" xlink:href="#4vvbc"/></g><g><use fill="#f7941d" xlink:href="#4vvbd"/></g><g><use fill="#f7941d" xlink:href="#4vvbe"/></g><g><use fill="#fff" xlink:href="#4vvbf"/></g></g></g></g></svg>