<svg xmlns="http://www.w3.org/2000/svg" xmlns:xlink="http://www.w3.org/1999/xlink" width="24" height="12" viewBox="0 0 6 3"><defs><path id="vfwpa" d="M706.969 62.419a1.643 1.643 0 0 0-.22-.728 1.042 1.042 0 0 0-.556-.499 1.642 1.642 0 0 0-.782-.171h-10.155l-.728 2.18h9.2l-1.452 4.458h-9.198l-.728 2.18h10.203c.304-.009.604-.067.89-.171.286-.163.613-.328.89-.556.27-.213.514-.458.728-.728.176-.265.326-.546.448-.84l1.348-4.237c.122-.28.161-.588.112-.888z"/><path id="vfwpb" d="M698.151 64.42h-5.413l-.728 2.016h5.469z"/></defs><g><g opacity=".2" transform="translate(-692 -64)"><g opacity=".2"><use fill="#41464a" xlink:href="#vfwpa"/></g><g opacity=".2"><use fill="#41464a" xlink:href="#vfwpb"/></g></g></g></svg>