<svg xmlns="http://www.w3.org/2000/svg" xmlns:xlink="http://www.w3.org/1999/xlink" width="20" height="20" viewBox="0 0 20 20"><defs><path id="q4fza" d="M585 276c0-5.523 4.477-10 10-10s10 4.477 10 10-4.477 10-10 10-10-4.477-10-10z"/><path id="q4fzb" d="M601.524 273.369a1.436 1.436 0 0 0-.192-.636.91.91 0 0 0-.486-.436 1.435 1.435 0 0 0-.684-.15h-8.876l-.636 1.906h8.042l-1.27 3.896h-8.04l-.636 1.906h8.918c.266-.008.529-.059.778-.15.25-.142.536-.286.778-.486.236-.186.45-.4.636-.636.154-.232.285-.477.392-.734l1.178-3.704c.107-.244.141-.513.098-.776z"/><path id="q4fzc" d="M593.822 275.115h-4.732l-.636 1.762h4.78z"/></defs><g><g transform="translate(-585 -266)"><g><g><use fill="#2573c2" xlink:href="#q4fza"/></g><g><g><use fill="#fff" xlink:href="#q4fzb"/></g><g><use fill="#fff" xlink:href="#q4fzc"/></g></g></g></g></g></svg>