<svg xmlns="http://www.w3.org/2000/svg" xmlns:xlink="http://www.w3.org/1999/xlink" width="20" height="20" viewBox="0 0 20 20"><defs><path id="hg3ha" d="M604.948 432.001c0 5.494-4.453 9.947-9.947 9.947-5.494 0-9.947-4.453-9.947-9.947 0-5.494 4.453-9.947 9.947-9.947 5.494 0 9.947 4.453 9.947 9.947"/><path id="hg3hb" d="M602.832 431.997a7.835 7.835 0 1 1-15.67 0 7.835 7.835 0 0 1 15.67 0"/><path id="hg3hc" d="M594.418 434.661l.647-2.433 1.53-.559.38-1.43-.013-.035-1.506.55 1.085-4.085h-3.077L592.045 432l-1.184.433-.392 1.474 1.184-.432-.836 3.142h8.188l.525-1.956h-5.112"/></defs><g><g transform="translate(-585 -422)"><g><g><use fill="#bebebe" xlink:href="#hg3ha"/></g><g><use fill="#bebebe" xlink:href="#hg3hb"/></g><g><use fill="#fff" xlink:href="#hg3hc"/></g></g></g></g></svg>