<svg xmlns="http://www.w3.org/2000/svg" xmlns:xlink="http://www.w3.org/1999/xlink" width="20" height="20" viewBox="0 0 20 20"><defs><path id="50v3a" d="M594.96 474c-5.5 0-9.96 4.46-9.96 9.961 0 1.1.178 2.157.507 3.146h2.98v-8.38l6.474 6.474 6.475-6.475v8.381h2.979c.33-.99.507-2.047.507-3.146 0-5.5-4.46-9.961-9.961-9.961"/><path id="50v3b" d="M593.469 486.687l-2.826-2.825v5.273h-4.197a9.956 9.956 0 0 0 8.512 4.785 9.956 9.956 0 0 0 8.511-4.785h-4.197v-5.273l-2.826 2.825-1.488 1.489-1.489-1.489z"/></defs><g><g transform="translate(-585 -474)"><g><g><use fill="#f60" xlink:href="#50v3a"/></g><g><use fill="#4c4c4c" xlink:href="#50v3b"/></g></g></g></g></svg>