<svg xmlns="http://www.w3.org/2000/svg" xmlns:xlink="http://www.w3.org/1999/xlink" width="36" height="39" viewBox="0 0 12 13"><defs><path id="rujqa" d="M1020.933 59.349a2.74 2.74 0 0 0-1.358 2.359c0 .5.201 1.005.453 1.455.201.402.3 1.104-.402 1.456-.5.3-1.156.1-1.456-.402-.3-.402-.65-.805-1.104-1.104-.852-.501-1.858-.501-2.71 0a2.742 2.742 0 0 0-1.356 2.36c0 .955.5 1.859 1.356 2.36.852.501 1.858.501 2.71 0 .453-.25.804-.65 1.054-1.103.2-.352.753-.805 1.455-.402.501.3.652.954.402 1.455a3.024 3.024 0 0 0-.402 1.456c0 .955.501 1.858 1.357 2.358.853.501 1.858.501 2.71 0A2.74 2.74 0 0 0 1025 69.24c0-.954-.502-1.858-1.357-2.36-.453-.252-.955-.352-1.506-.352-.453 0-1.054-.3-1.054-1.053 0-.603.453-1.054 1.054-1.054.5 0 1.053-.1 1.506-.351A2.74 2.74 0 0 0 1025 61.71c0-.953-.502-1.858-1.357-2.358-.402-.252-.903-.352-1.356-.352-.45-.003-.955.1-1.354.349"/></defs><g><g opacity=".2" transform="translate(-1013 -59)"><use fill="#41464a" xlink:href="#rujqa"/></g></g></svg>