<svg xmlns="http://www.w3.org/2000/svg" xmlns:xlink="http://www.w3.org/1999/xlink" width="16" height="14" viewBox="0 0 16 14"><defs><path id="7kuba" d="M1864.182 1025.003V1025h.76l.277.056c.185.036.353.083.504.141a4.166 4.166 0 0 1 .822.443c.114.08.216.164.307.254.09.09.23.114.42.07.19-.044.394-.105.613-.183.219-.078.435-.165.65-.263.214-.097.344-.159.39-.185l.074-.044.003-.004.014-.008.015-.007.015-.007.014-.007.003-.005.005-.003.004-.003.003-.004.014-.004.015-.003-.003.022-.004.021-.008.022-.007.022-.007.015-.007.015-.008.021a.509.509 0 0 0-.014.059 2.45 2.45 0 0 1-.14.292c-.087.17-.196.343-.328.518-.131.176-.249.308-.353.398a3.36 3.36 0 0 0-.209.19.627.627 0 0 1-.124.102l-.073.048-.015.007-.014.008-.003.004-.005.003-.004.003-.003.004-.015.007-.014.008-.003.004-.004.003-.005.003-.003.004-.003.005-.004.003-.004.003-.003.004h.073l.409-.088c.272-.058.533-.129.781-.211l.394-.132.044-.014.022-.008.015-.007.014-.007.015-.008.014-.007.03-.004.029-.003v.029l-.007.003-.008.004-.003.005-.004.003-.004.002-.003.005-.003.004-.005.003-.004.003-.003.004-.003.005-.004.003-.008.014-.007.015-.004.003-.186.248a2.054 2.054 0 0 1-.197.248 4.183 4.183 0 0 1-.35.37 7.35 7.35 0 0 1-.558.507.692.692 0 0 0-.278.549c-.003.216-.014.46-.033.733-.02.273-.056.567-.11.884-.053.316-.136.674-.248 1.073a9.76 9.76 0 0 1-.913 2.19 9.866 9.866 0 0 1-.927 1.358c-.151.186-.342.394-.573.626l-.38.38a9.624 9.624 0 0 1-.286.24c-.167.139-.348.278-.54.417a6.252 6.252 0 0 1-.529.346c-.16.093-.354.198-.581.317-.226.12-.47.231-.733.333-.263.102-.54.197-.833.285a7.604 7.604 0 0 1-.847.204c-.273.05-.582.09-.927.125l-.519.05v.008h-.95v-.007l-.123-.008a6.661 6.661 0 0 1-.205-.014 24.413 24.413 0 0 1-.606-.08 8.747 8.747 0 0 1-.825-.147c-.2-.048-.497-.14-.891-.277a8.667 8.667 0 0 1-1.012-.413c-.28-.139-.455-.226-.526-.263a3.732 3.732 0 0 1-.237-.135l-.131-.08-.003-.004-.004-.003-.005-.003-.003-.005-.014-.007-.015-.007-.003-.005-.004-.002-.004-.003-.003-.005-.003-.004-.005-.003h-.007v-.03l.015.004.014.004.066.007c.044.005.163.012.358.022a6.59 6.59 0 0 0 2.103-.24c.311-.084.598-.182.859-.296.26-.115.445-.2.555-.257.109-.055.275-.159.5-.31l.335-.226.003-.004.004-.003.005-.003.003-.004.003-.005.004-.003.004-.003.003-.004.015-.004.014-.003.003-.015.005-.015.004-.002.003-.005-.117-.007-.226-.015a2.195 2.195 0 0 1-.343-.065 3.294 3.294 0 0 1-.504-.176 3.884 3.884 0 0 1-.896-.544 6.409 6.409 0 0 1-.292-.298 2.955 2.955 0 0 1-.31-.4 3.582 3.582 0 0 1-.25-.47l-.122-.267-.007-.022-.007-.022-.005-.014-.003-.015.022.003.022.005.16.021c.108.015.276.02.505.015a3.9 3.9 0 0 0 .474-.03c.088-.014.142-.023.161-.028l.03-.008.036-.007.036-.007.003-.005.005-.003.004-.002.003-.005-.03-.007-.029-.007-.029-.008-.029-.007-.03-.007a2.69 2.69 0 0 1-.101-.03 5.606 5.606 0 0 1-.395-.16 3.016 3.016 0 0 1-.51-.27 3.529 3.529 0 0 1-.363-.288 4.133 4.133 0 0 1-.375-.406 2.921 2.921 0 0 1-.366-.577 3.508 3.508 0 0 1-.24-.628 3.39 3.39 0 0 1-.106-.606l-.026-.307.015.003.014.004.015.008.014.007.015.007.015.008.226.102c.15.068.338.126.562.175.224.049.358.076.402.08l.066.008h.131l-.003-.005-.004-.003-.005-.002-.002-.005-.003-.004-.005-.003-.004-.003-.003-.004-.015-.008-.014-.007-.003-.004-.005-.003-.004-.003-.003-.005-.015-.007-.014-.007-.003-.005a1.915 1.915 0 0 1-.377-.332 8.59 8.59 0 0 1-.263-.306 2.368 2.368 0 0 1-.233-.343 4.158 4.158 0 0 1-.217-.465 3.296 3.296 0 0 1-.236-1.127 3.54 3.54 0 0 1 .014-.475 3.47 3.47 0 0 1 .277-.971l.125-.277.007-.022.008-.022.004-.003.003-.005.003-.004.004-.003.005.003.003.004.003.005.004.003.004.003.003.004.003.004.004.003.008.015.007.015.004.003.003.004.198.219c.131.146.287.31.467.49.18.18.28.273.3.28.019.007.043.03.072.067.03.036.127.122.292.258.166.137.383.295.65.475.268.18.565.358.891.533.326.175.677.334 1.052.475.375.14.638.233.788.277.151.044.41.1.775.168.365.068.64.112.825.132.185.02.311.03.38.033l.102.003-.003-.022-.005-.022-.029-.182a3.432 3.432 0 0 1-.029-.511c0-.22.017-.421.051-.606a3.59 3.59 0 0 1 .153-.563c.069-.19.135-.342.2-.457.067-.114.153-.244.26-.39.108-.146.246-.297.417-.453.17-.155.365-.294.584-.416.219-.122.421-.214.606-.277.185-.064.34-.105.467-.124.127-.02.19-.031.19-.034z"/></defs><g><g transform="translate(-1854 -1025)"><use fill="#41464a" xlink:href="#7kuba"/></g></g></svg>