<svg xmlns="http://www.w3.org/2000/svg" width="1070.5pt" height="1070.5pt" version="1.0" viewBox="0 0 1070.5 1070.5">
  <g transform="matrix(.1 0 0 -.1 -.5 1071)">
    <path d="m1869.9998 7220.0002-1864.99995-1865 1861.99995-1862 1863-1863 1625 1625 813-812 812-813 1865 1865 1865.0002 1865-1862.0002 1862-1863 1863-1625-1625-1625 1625zm4420-2200c-187-187-340-345-340-350s91-101 202-212l203-203 1105 1105-1685 1685 1210 1210 2895-2895-2900-2900-2895 2895 685 685-415 415-1100-1100 1685-1685-1210-1210-1448 1448-1446.99995 1447 1449.99995 1450 1450 1450 2895-2895z"/>
  </g>
</svg>
